# xmcd
#
# Track frame offsets:
#	150
#	1787
#	10985
#	21617
#	24475
#	29812
#	40367
#	46007
#	51255
#	57662
#	62600
#	66925
#	76690
#	80985
#	85322
#	90012
#	101032
#	109457
#	121567
#	124977
#	138562
#	142427
#	155310
#	159015
#	166297
#	175497
#	180712
#	186807
#	193712
#	199382
#	203517
#	210300
#	214832
#	218142
#	220947
#	223920
#	231202
#	240127
#	243282
#	246670
#	251662
#	262992
#	266145
#
# Disc length: 3685 seconds
#
# Revision: 0
# Processed by: cddbd v1.4PL0 Copyright (c) Steve Scherf et al.
# Submitted via: EasyCDDAExtractor 4.6.0.1
#
DISCID=7b0e632b
DTITLE=Paganini
DYEAR=1900
DGENRE=
TTITLE0=Ghiribizzi No. 1 - Allegretto
TTITLE1=Ghiribizzi No. 2 - Andantino
TTITLE2=Ghiribizzi No. 3 - Valtz
TTITLE3=Ghiribizzi No. 4 - Allegretto
TTITLE4=Ghiribizzi No. 5 - Moderato
TTITLE5=Ghiribizzi No. 6 - Andantino
TTITLE6=Ghiribizzi No. 7 - Valtz
TTITLE7=Ghiribizzi No. 8 - Andante
TTITLE8=Ghiribizzi No. 9 - Andantino
TTITLE9=Ghiribizzi No. 10 - Allegretto
TTITLE10=Ghiribizzi No. 11 - Allegretto
TTITLE11=Ghiribizzi No. 12 - Andante
TTITLE12=Ghiribizzi No. 13 - Allegro
TTITLE13=Ghiribizzi No. 14 - Allegro assai
TTITLE14=Ghiribizzi No. 15 - Allegro
TTITLE15=Ghiribizzi No. 16 - 'In cor piu non mi sento' Larghetto (G. Paisiello
TTITLE15=)
TTITLE16=Ghiribizzi No. 17 - 'Le strenghe' Andantino (F.X. Sussmayr)
TTITLE17=Ghiribizzi No. 18 - Andantino
TTITLE18=Ghiribizzi No. 19 - Corrente
TTITLE19=Ghiribizzi No. 20 - 'La ci darem la mano' Andante (Mozart)
TTITLE20=Ghiribizzi No. 21 - Allegretto
TTITLE21=Ghiribizzi No. 22 - Larghetto
TTITLE22=Ghiribizzi No. 23 - Allegro
TTITLE23=Ghiribizzi No. 24 - Andante
TTITLE24=Ghiribizzi No. 25 - Andante
TTITLE25=Ghiribizzi No. 26 - Arietta
TTITLE26=Ghiribizzi No. 27 - Andantino
TTITLE27=Ghiribizzi No. 28 - Valtz
TTITLE28=Ghiribizzi No. 29 - Marcia
TTITLE29=Ghiribizzi No. 30 - Allegretto
TTITLE30=Ghiribizzi No. 31 - Minuetto (Andante)
TTITLE31=Ghiribizzi No. 32 - Allegretto
TTITLE32=Ghiribizzi No. 33 - Allegretto
TTITLE33=Ghiribizzi No. 34 - Valtz
TTITLE34=Ghiribizzi No. 35 - Valtz
TTITLE35=Ghiribizzi No. 36 - Allegretto
TTITLE36=Ghiribizzi No. 37 - Adagetto con espressione
TTITLE37=Ghiribizzi No. 38 - Vivace
TTITLE38=Ghiribizzi No. 39 - Allegretto
TTITLE39=Ghiribizzi No. 40 - Andante
TTITLE40=Ghiribizzi No. 41 - Allegro
TTITLE41=Ghiribizzi No. 42 - Valtz
TTITLE42=Ghiribizzi No. 43 - Andantino
EXTD=Ghiribizzi
EXTT0=
EXTT1=
EXTT2=
EXTT3=
EXTT4=
EXTT5=
EXTT6=
EXTT7=
EXTT8=
EXTT9=
EXTT10=
EXTT11=
EXTT12=
EXTT13=
EXTT14=
EXTT15=
EXTT16=
EXTT17=
EXTT18=
EXTT19=
EXTT20=
EXTT21=
EXTT22=
EXTT23=
EXTT24=
EXTT25=
EXTT26=
EXTT27=
EXTT28=
EXTT29=
EXTT30=
EXTT31=
EXTT32=
EXTT33=
EXTT34=
EXTT35=
EXTT36=
EXTT37=
EXTT38=
EXTT39=
EXTT40=
EXTT41=
EXTT42=
PLAYORDER=
